<svg width="22" height="22" viewBox="0 0 22 22" fill="none" xmlns="http://www.w3.org/2000/svg">
<path fill-rule="evenodd" clip-rule="evenodd" d="M14.6539 4.92299C14.6539 3.66935 15.6695 2.65376 16.9232 2.65376C18.1768 2.65376 19.1924 3.66935 19.1924 4.92299C19.1924 6.17663 18.1768 7.19222 16.9232 7.19222C15.6695 7.19222 14.6539 6.17663 14.6539 4.92299ZM18.1924 4.92299C18.1924 4.22163 17.6245 3.65376 16.9232 3.65376C16.2218 3.65376 15.6539 4.22163 15.6539 4.92299C15.6539 5.62435 16.2218 6.19222 16.9232 6.19222C17.6245 6.19222 18.1924 5.62435 18.1924 4.92299Z" fill="#216bff"/>
<path fill-rule="evenodd" clip-rule="evenodd" d="M12.4558 10.3313C13.1727 11.2631 13.4322 12.2983 12.9392 12.934C12.77 13.1522 12.4559 13.1919 12.2377 13.0227C12.0195 12.8535 11.9798 12.5394 12.149 12.3212C12.2872 12.1429 12.1433 11.6124 11.7401 11.0469L10.7555 12.0315C10.8786 12.203 10.9896 12.3711 11.0892 12.541C11.5936 13.4016 11.7274 14.1514 11.1754 14.7034C10.5618 15.317 9.46008 15.0716 8.47331 14.3137L7.66716 15.1198C7.4719 15.3151 7.15532 15.3151 6.96006 15.1198C6.78649 14.9463 6.7672 14.6769 6.9022 14.482L6.96006 14.4127L7.74262 13.6302C6.86129 12.6343 6.49673 11.4576 7.03818 10.7598C7.20745 10.5416 7.52155 10.502 7.73972 10.6713C7.95789 10.8406 7.99753 11.1546 7.82825 11.3728C7.66745 11.5801 7.88703 12.2606 8.45171 12.9211L9.4306 11.9422L9.30556 11.7799C9.14871 11.5683 9.01015 11.3635 8.88857 11.1561C8.3833 10.294 8.24889 9.54353 8.80108 8.99133C9.47142 8.321 10.7224 8.6742 11.7717 9.6011L11.9642 9.4086C12.1595 9.21333 12.476 9.21333 12.6713 9.4086C12.8449 9.58216 12.8642 9.85159 12.7292 10.0465L12.6713 10.1157L12.4558 10.3313ZM11.0626 10.3102C10.3805 9.72802 9.68546 9.52117 9.50819 9.69844C9.3957 9.81093 9.45574 10.1461 9.7513 10.6504C9.81882 10.7656 9.89432 10.8823 9.97776 11.0021L10.144 11.2288L11.0626 10.3102ZM10.0375 12.7495L9.18894 13.5981C9.77381 14.0144 10.3154 14.1492 10.4683 13.9963C10.5809 13.8837 10.5212 13.5496 10.2264 13.0466C10.1692 12.949 10.1062 12.8503 10.0375 12.7495Z" fill="#216bff"/>
<path fill-rule="evenodd" clip-rule="evenodd" d="M13.9658 0H19.5769C20.8306 0 21.8462 1.01559 21.8462 2.26923V7.88035C21.8462 8.95178 21.4209 9.97854 20.6629 10.7365L10.8242 20.5752C10.3306 21.0688 9.66119 21.3462 8.96331 21.3462C8.26247 21.3462 7.59285 21.0692 7.09883 20.5752L1.27099 14.7473C0.777371 14.2537 0.5 13.5843 0.5 12.8864C0.5 12.1855 0.776963 11.5159 1.27099 11.0219L11.1097 1.18322C11.8676 0.425279 12.8944 0 13.9658 0ZM19.5769 1H13.9658C13.1596 1 12.3872 1.31993 11.8168 1.89032L1.97809 11.729C1.67174 12.0354 1.5 12.4506 1.5 12.8864C1.5 13.319 1.67199 13.7341 1.97809 14.0402L7.80594 19.8681C8.11229 20.1744 8.5275 20.3462 8.96331 20.3462C9.39593 20.3462 9.81104 20.1742 10.1171 19.8681L19.9558 10.0294C20.5262 9.45897 20.8462 8.68657 20.8462 7.88035V2.26923C20.8462 1.56787 20.2783 1 19.5769 1Z" fill="#216bff"/>
</svg>
