<svg width="17" height="24" viewBox="0 0 17 24" fill="none" xmlns="http://www.w3.org/2000/svg">
<path d="M0.211426 8.23513C0.405855 3.80846 3.72689 0.240872 7.8636 0V1.91194C4.712 2.14807 2.19071 4.86035 1.99999 8.23513H0.211426Z" fill="#216bff"/>
<path d="M9.13896 0C13.2756 0.240872 16.5967 3.80866 16.7911 8.23513H15.0025C14.812 4.86055 12.2906 2.14807 9.13896 1.91194V0Z" fill="#216bff"/>
<path d="M9.86928 15.9488C10.9924 14.4375 12.164 12.8609 12.3951 12.4978L12.4169 12.4637C12.8974 11.7097 13.5268 10.7222 13.5957 9.2242C13.6003 9.12857 13.6027 9.03231 13.6027 8.93544C13.6027 5.90049 11.3244 3.4313 8.52406 3.4313C5.72351 3.4313 3.44519 5.90049 3.44519 8.93544C3.44519 9.03231 3.44767 9.12857 3.45223 9.2242C3.52222 10.7449 4.1342 11.8368 4.65339 12.4984L4.68667 12.5409L4.68952 12.5384C5.29676 13.2967 6.09208 13.8722 6.99523 14.1826L8.13096 12.6386L7.12873 12.1097C5.99033 11.4139 5.34639 10.4394 5.28325 9.11991C5.2804 9.05952 5.27869 8.9981 5.27869 8.93544C5.27869 6.99616 6.73449 5.41819 8.52406 5.41819C10.3134 5.41819 11.7692 6.99616 11.7692 8.93544C11.7692 8.9981 11.7675 9.05952 11.7649 9.11991C11.7268 9.91054 11.4996 10.4493 11.0034 11.201C10.5072 11.9529 6.43839 17.4071 6.43839 17.4071C6.1845 17.0631 5.92834 16.717 5.67788 16.3787L5.67731 16.3779C4.8039 15.1981 3.99984 14.1119 3.60323 13.5288C2.64645 12.1225 2.144 10.9316 2.04949 9.50101H0.211426C0.308036 11.3888 0.950263 12.9634 2.15009 14.7407C2.72656 15.5944 4.1125 17.4574 5.36497 19.141C5.74418 19.6507 6.11115 20.144 6.43972 20.5878L8.6182 17.6355C8.98652 17.1366 9.42412 16.5478 9.86928 15.9488Z" fill="#216bff"/>
<path d="M8.41062 20.2016C8.77126 19.7251 9.23889 19.1062 9.74755 18.4322C10.062 18.0154 10.3928 17.5788 10.7232 17.1427C11.8086 15.71 12.8893 14.2835 13.3716 13.5857C14.3537 12.1648 14.8426 11.0206 14.9381 9.60765H16.7911C16.6937 11.4721 16.0585 12.9954 14.8364 14.7827C13.8156 16.2754 10.2715 20.8956 9.34671 22.1011C9.22729 22.2568 9.15155 22.3555 9.13056 22.3832L8.41062 23.3329L7.69048 22.3832C7.67693 22.3653 7.64058 22.3173 7.58447 22.2432C7.50327 22.136 7.38069 21.9742 7.22592 21.7697L8.41062 20.2016Z" fill="#216bff"/>
</svg>
