<svg width="22" height="23" viewBox="0 0 22 23" fill="none" xmlns="http://www.w3.org/2000/svg">
<path fill-rule="evenodd" clip-rule="evenodd" d="M1.83333 3.70833C1.83333 2.9492 2.4492 2.33333 3.20833 2.33333C3.96746 2.33333 4.58333 2.9492 4.58333 3.70833C4.58333 4.46746 3.96746 5.08333 3.20833 5.08333C2.4492 5.08333 1.83333 4.46746 1.83333 3.70833ZM3.66667 3.70833C3.66667 3.45546 3.4612 3.25 3.20833 3.25C2.95546 3.25 2.75 3.45546 2.75 3.70833C2.75 3.9612 2.95546 4.16667 3.20833 4.16667C3.4612 4.16667 3.66667 3.9612 3.66667 3.70833Z" fill="#216bff"/>
<path fill-rule="evenodd" clip-rule="evenodd" d="M0 3.70833C0 1.93629 1.43629 0.5 3.20833 0.5C4.98038 0.5 6.41667 1.93629 6.41667 3.70833C6.41667 4.33355 6.07341 5.23183 5.46585 6.38266C5.31709 6.66445 5.15434 6.95702 4.97979 7.25791C4.6748 7.78367 4.34858 8.30997 4.0224 8.8122C3.98975 8.86247 3.9583 8.91067 3.92815 8.95669L3.58544 9.46883C3.40283 9.73319 3.01194 9.73249 2.83028 9.46746L2.70969 9.28997L2.24854 8.58615C1.92211 8.07603 1.60462 7.55503 1.31374 7.04356C0.483944 5.58448 0 4.44954 0 3.70833ZM5.5 3.70833C5.5 2.44255 4.47412 1.41667 3.20833 1.41667C1.94255 1.41667 0.916667 2.44255 0.916667 3.70833C0.916667 4.16349 1.25926 5.02383 1.84495 6.11107L2.11056 6.5904C2.39285 7.08677 2.70227 7.59451 3.02066 8.09207L3.208 8.381L3.57118 7.8159L3.88386 7.309L4.18688 6.79794C4.35557 6.50714 4.51245 6.22513 4.65522 5.9547C5.19358 4.93494 5.5 4.13306 5.5 3.70833Z" fill="#216bff"/>
<path fill-rule="evenodd" clip-rule="evenodd" d="M17.875 11.5C16.609 11.5 15.5833 12.5256 15.5833 13.7917C15.5833 15.0577 16.609 16.0833 17.875 16.0833C19.141 16.0833 20.1667 15.0577 20.1667 13.7917C20.1667 12.5256 19.141 11.5 17.875 11.5ZM17.875 12.4167C18.6348 12.4167 19.25 13.0319 19.25 13.7917C19.25 14.5515 18.6348 15.1667 17.875 15.1667C17.1152 15.1667 16.5 14.5515 16.5 13.7917C16.5 13.0319 17.1152 12.4167 17.875 12.4167Z" fill="#216bff"/>
<path fill-rule="evenodd" clip-rule="evenodd" d="M13.75 13.7917C13.75 11.5136 15.597 9.66667 17.875 9.66667C20.153 9.66667 22 11.5136 22 13.7917C22 14.5219 21.6194 15.6705 20.9382 17.1774L20.6498 17.7991C20.4837 18.1491 20.3056 18.5113 20.1172 18.8831C19.7131 19.6808 19.2805 20.4868 18.848 21.2609C18.6967 21.5318 18.556 21.7795 18.4298 21.9989L18.2699 22.2743C18.0926 22.5752 17.6574 22.5752 17.4801 22.2743L16.902 21.2609C16.4695 20.4868 16.0369 19.6808 15.6328 18.8831C15.4444 18.5113 15.2663 18.1491 15.1002 17.7991C14.2388 15.9842 13.75 14.6193 13.75 13.7917ZM21.0833 13.7917C21.0833 12.0199 19.6468 10.5833 17.875 10.5833C16.1032 10.5833 14.6667 12.0199 14.6667 13.7917C14.6667 14.4313 15.1284 15.7207 15.9283 17.4061C15.9825 17.5203 16.038 17.6359 16.0949 17.7527L16.4505 18.4689C16.8485 19.2544 17.2753 20.0498 17.7022 20.8138L17.875 21.121L18.4736 20.0409C18.756 19.5207 19.0342 18.9926 19.2995 18.4689C19.4845 18.1038 19.6591 17.7487 19.8217 17.4061C20.6216 15.7207 21.0833 14.4313 21.0833 13.7917Z" fill="#216bff"/>
<path d="M6.16482 8.80891C5.8214 8.77054 5.45583 8.75085 5.06712 8.75003C4.81399 8.74949 4.60836 8.95426 4.60782 9.20739C4.60729 9.46052 4.81206 9.66616 5.06519 9.66669C5.42137 9.66745 5.75368 9.68534 6.06303 9.71991C6.31459 9.74802 6.54131 9.56687 6.56942 9.31531C6.59753 9.06374 6.41638 8.83702 6.16482 8.80891Z" fill="#216bff"/>
<path d="M8.10027 9.32189C8.76611 9.63561 9.29138 10.0762 9.69153 10.6391C9.83821 10.8454 9.78987 11.1315 9.58357 11.2782C9.37726 11.4249 9.09112 11.3765 8.94444 11.1702C8.63525 10.7353 8.23257 10.3975 7.70956 10.1511C7.48057 10.0432 7.3824 9.77013 7.4903 9.54115C7.59819 9.31216 7.87128 9.21399 8.10027 9.32189Z" fill="#216bff"/>
<path d="M10.7793 14.3659C10.7128 13.6232 10.6259 13.0289 10.4921 12.4847C10.4317 12.2388 10.1835 12.0885 9.93767 12.149C9.69185 12.2094 9.54155 12.4576 9.60196 12.7034C9.72289 13.1955 9.80361 13.7472 9.86631 14.4476C9.88888 14.6997 10.1116 14.8858 10.3637 14.8633C10.6158 14.8407 10.8019 14.618 10.7793 14.3659Z" fill="#216bff"/>
<path d="M10.9141 16.2223C10.9693 16.9531 11.0313 17.4934 11.1259 17.9918C11.173 18.2405 11.0097 18.4804 10.761 18.5275C10.5123 18.5747 10.2724 18.4113 10.2252 18.1626C10.1231 17.6242 10.0576 17.0534 10 16.2914C9.98096 16.039 10.1701 15.8189 10.4225 15.7998C10.6749 15.7807 10.895 15.9699 10.9141 16.2223Z" fill="#216bff"/>
<path d="M12.7306 20.8062C12.2715 20.5 11.9214 20.1037 11.6564 19.6069C11.5372 19.3836 11.2596 19.2991 11.0362 19.4183C10.8129 19.5374 10.7285 19.8151 10.8476 20.0384C11.1821 20.6652 11.6335 21.1764 12.222 21.5688C12.4326 21.7093 12.7172 21.6524 12.8576 21.4418C12.9981 21.2312 12.9412 20.9466 12.7306 20.8062Z" fill="#216bff"/>
<path d="M16.0417 21.5833C15.3901 21.5833 14.8137 21.5302 14.3076 21.4265C14.0597 21.3756 13.8174 21.5355 13.7666 21.7834C13.7158 22.0314 13.8756 22.2736 14.1236 22.3245C14.6932 22.4412 15.3307 22.5 16.0417 22.5C16.2948 22.5 16.5 22.2948 16.5 22.0417C16.5 21.7885 16.2948 21.5833 16.0417 21.5833Z" fill="#216bff"/>
</svg>
