<svg width="24" height="25" viewBox="0 0 24 25" fill="none" xmlns="http://www.w3.org/2000/svg">
<path fill-rule="evenodd" clip-rule="evenodd" d="M17.1957 1.5H6.23913C4.45008 1.5 3 2.95008 3 4.73913V20.2609C3 22.0499 4.45008 23.5 6.23913 23.5H17.1957C18.9847 23.5 20.4348 22.0499 20.4348 20.2609V4.73913C20.4348 2.95008 18.9847 1.5 17.1957 1.5ZM6.23913 2.5H17.1957C18.4324 2.5 19.4348 3.50236 19.4348 4.73913V20.2609C19.4348 21.4976 18.4324 22.5 17.1957 22.5H6.23913C5.00236 22.5 4 21.4976 4 20.2609V4.73913C4 3.50236 5.00236 2.5 6.23913 2.5ZM8.06476 9.71739H6.23867C5.96253 9.71739 5.73867 9.94125 5.73867 10.2174V12.0435C5.73867 12.3196 5.96253 12.5435 6.23867 12.5435H8.06476C8.3409 12.5435 8.56476 12.3196 8.56476 12.0435V10.2174C8.56476 9.94125 8.3409 9.71739 8.06476 9.71739ZM7.564 10.717V11.543H6.738V10.717H7.564ZM10.8039 9.71739H12.63C12.9061 9.71739 13.13 9.94125 13.13 10.2174V12.0435C13.13 12.3196 12.9061 12.5435 12.63 12.5435H10.8039C10.5277 12.5435 10.3039 12.3196 10.3039 12.0435V10.2174C10.3039 9.94125 10.5277 9.71739 10.8039 9.71739ZM12.129 11.543V10.717H11.303V11.543H12.129ZM17.1952 9.71739H15.3691C15.093 9.71739 14.8691 9.94125 14.8691 10.2174V12.0435C14.8691 12.3196 15.093 12.5435 15.3691 12.5435H17.1952C17.4713 12.5435 17.6952 12.3196 17.6952 12.0435V10.2174C17.6952 9.94125 17.4713 9.71739 17.1952 9.71739ZM16.695 10.717V11.543H15.869V10.717H16.695ZM6.23867 13.8041H8.06476C8.3409 13.8041 8.56476 14.0279 8.56476 14.3041V16.1302C8.56476 16.4063 8.3409 16.6302 8.06476 16.6302H6.23867C5.96253 16.6302 5.73867 16.4063 5.73867 16.1302V14.3041C5.73867 14.0279 5.96253 13.8041 6.23867 13.8041ZM7.564 15.63V14.804H6.738V15.63H7.564ZM12.63 13.8041H10.8039C10.5277 13.8041 10.3039 14.0279 10.3039 14.3041V16.1302C10.3039 16.4063 10.5277 16.6302 10.8039 16.6302H12.63C12.9061 16.6302 13.13 16.4063 13.13 16.1302V14.3041C13.13 14.0279 12.9061 13.8041 12.63 13.8041ZM12.129 14.804V15.63H11.303V14.804H12.129ZM15.3691 13.8041H17.1952C17.4713 13.8041 17.6952 14.0279 17.6952 14.3041V20.2223C17.6952 20.4984 17.4713 20.7223 17.1952 20.7223H15.3691C15.093 20.7223 14.8691 20.4984 14.8691 20.2223V14.3041C14.8691 14.0279 15.093 13.8041 15.3691 13.8041ZM16.695 19.722V14.804H15.869V19.722H16.695ZM8.06476 17.8933H6.23867C5.96253 17.8933 5.73867 18.1171 5.73867 18.3933V20.2194C5.73867 20.4955 5.96253 20.7194 6.23867 20.7194H8.06476C8.3409 20.7194 8.56476 20.4955 8.56476 20.2194V18.3933C8.56476 18.1171 8.3409 17.8933 8.06476 17.8933ZM7.564 18.893V19.719H6.738V18.893H7.564ZM10.8039 17.8933H12.63C12.9061 17.8933 13.13 18.1171 13.13 18.3933V20.2194C13.13 20.4955 12.9061 20.7194 12.63 20.7194H10.8039C10.5277 20.7194 10.3039 20.4955 10.3039 20.2194V18.3933C10.3039 18.1171 10.5277 17.8933 10.8039 17.8933ZM12.129 19.719V18.893H11.303V19.719H12.129ZM16.2826 3.32609H7.15217C6.37136 3.32609 5.73913 3.95875 5.73913 4.73913V6.56522C5.73913 7.3456 6.37136 7.97826 7.15217 7.97826H16.2826C17.0634 7.97826 17.6957 7.3456 17.6957 6.56522V4.73913C17.6957 3.95875 17.0634 3.32609 16.2826 3.32609ZM7.15217 4.32609H16.2826C16.511 4.32609 16.6957 4.51088 16.6957 4.73913V6.56522C16.6957 6.79347 16.511 6.97826 16.2826 6.97826H7.15217C6.9238 6.97826 6.73913 6.79347 6.73913 6.56522V4.73913C6.73913 4.51088 6.9238 4.32609 7.15217 4.32609Z" fill="#216bff"/>
</svg>
