<svg width="24" height="23" viewBox="0 0 24 23" fill="none" xmlns="http://www.w3.org/2000/svg">
<path d="M10.5001 4.5V1.09867C10.5001 0.786861 10.7823 0.551111 11.0892 0.606667L21.1345 2.4256C21.3724 2.46867 21.5455 2.67582 21.5455 2.91759V19.5M10.5001 4.5L2.45697 5.92703C2.21888 5.96928 2.04514 6.17585 2.04432 6.41765L2 19.5M10.5001 4.5V19.5M4 16H10.5001M2 19.5H10M2 19.5H1.1C1.04477 19.5 1 19.5448 1 19.6L1.00001 22.4C1.00002 22.4552 1.04479 22.5 1.10001 22.5H10M21.5455 19.5H10.5001M21.5455 19.5H22.9C22.9552 19.5 23 19.5448 23 19.6V22.4C23 22.4552 22.9552 22.5 22.9 22.5H10.5001H10M10.5001 19.5H10M10 19.5V22.5M4 13.5H10.5001M4 11H10.5001M4 8.5H10.5001M19 14.6V16.4C19 16.4552 18.9552 16.5 18.9 16.5H17.1C17.0448 16.5 17 16.4552 17 16.4V14.6C17 14.5448 17.0448 14.5 17.1 14.5H18.9C18.9552 14.5 19 14.5448 19 14.6ZM15 14.6V16.4C15 16.4552 14.9552 16.5 14.9 16.5H13.1C13.0448 16.5 13 16.4552 13 16.4V14.6C13 14.5448 13.0448 14.5 13.1 14.5H14.9C14.9552 14.5 15 14.5448 15 14.6ZM18.9 11.5H17.1C17.0448 11.5 17 11.4552 17 11.4V9.6C17 9.54477 17.0448 9.5 17.1 9.5H18.9C18.9552 9.5 19 9.54477 19 9.6V11.4C19 11.4552 18.9552 11.5 18.9 11.5ZM15 9.6V11.4C15 11.4552 14.9552 11.5 14.9 11.5H13.1C13.0448 11.5 13 11.4552 13 11.4V9.6C13 9.54477 13.0448 9.5 13.1 9.5H14.9C14.9552 9.5 15 9.54477 15 9.6ZM18.9 6.5H17.1C17.0448 6.5 17 6.45523 17 6.4V4.6C17 4.54477 17.0448 4.5 17.1 4.5H18.9C18.9552 4.5 19 4.54477 19 4.6V6.4C19 6.45523 18.9552 6.5 18.9 6.5ZM15 4.6V6.4C15 6.45523 14.9552 6.5 14.9 6.5H13.1C13.0448 6.5 13 6.45523 13 6.4V4.6C13 4.54477 13.0448 4.5 13.1 4.5H14.9C14.9552 4.5 15 4.54477 15 4.6Z" stroke="#216bff" stroke-linecap="round"/>
</svg>
