<svg width="22" height="23" viewBox="0 0 22 23" fill="none" xmlns="http://www.w3.org/2000/svg">
<path fill-rule="evenodd" clip-rule="evenodd" d="M10.7644 3.20312L8.0144 5.03645C7.60278 5.31086 7.79705 5.95247 8.29175 5.95247H13.7918C14.2865 5.95247 14.4807 5.31086 14.0691 5.03645L11.3191 3.20312C11.1512 3.09115 10.9324 3.09115 10.7644 3.20312ZM11.0421 4.21997L12.1401 4.95197H9.94308L11.0421 4.21997Z" fill="#216bff"/>
<path fill-rule="evenodd" clip-rule="evenodd" d="M10.7733 0.44731L0.68998 6.86398C0.26796 7.13253 0.458194 7.78581 0.958417 7.78581H1.37508V9.11914C1.37508 9.39528 1.59894 9.61914 1.87508 9.61914H2.29175V10.0358C2.29175 10.642 2.67285 11.1595 3.20842 11.3616V17.8766C2.67285 18.0788 2.29175 18.5963 2.29175 19.2025V19.6191H1.87508C1.09294 19.6191 0.458417 20.2537 0.458417 21.0358V21.9525C0.458417 22.2286 0.682275 22.4525 0.958417 22.4525H21.1251C21.4012 22.4525 21.6251 22.2286 21.6251 21.9525V21.0358C21.6251 20.2537 20.9906 19.6191 20.2084 19.6191H19.7917V19.2025C19.7917 18.5963 19.4106 18.0788 18.8751 17.8766V11.3616C19.4106 11.1595 19.7917 10.642 19.7917 10.0358V9.61914H20.2084C20.4846 9.61914 20.7084 9.39528 20.7084 9.11914V7.78581H21.1251C21.6253 7.78581 21.8155 7.13253 21.3935 6.86398L11.3102 0.44731C11.1464 0.343084 10.9371 0.343084 10.7733 0.44731ZM2.37508 8.61897V7.78581H19.7081V8.61897H2.37508ZM5.95808 9.61914H3.29108L3.29175 10.0358C3.29175 10.2401 3.43935 10.4104 3.63359 10.4458L3.70842 10.4525H5.54175C5.77161 10.4525 5.95842 10.2657 5.95842 10.0358L5.95808 9.61914ZM8.70842 9.61914H6.95842V10.0358C6.95842 10.642 6.57732 11.1595 6.04175 11.3616V17.8766C6.57732 18.0788 6.95842 18.5963 6.95842 19.2025V19.6191H8.70842V19.2025C8.70842 18.5963 9.08952 18.0788 9.62508 17.8766V11.3616C9.08952 11.1595 8.70842 10.642 8.70842 10.0358V9.61914ZM12.3751 9.61914H9.70808L9.70842 10.0358C9.70842 10.2401 9.85602 10.4104 10.0503 10.4458L10.1251 10.4525H11.9584C12.1883 10.4525 12.3751 10.2657 12.3751 10.0358V9.61914ZM15.1251 9.61914H13.3751V10.0358C13.3751 10.642 12.994 11.1595 12.4584 11.3616V17.8766C12.994 18.0788 13.3751 18.5963 13.3751 19.2025V19.6191H15.1251V19.2025C15.1251 18.5963 15.5062 18.0788 16.0418 17.8766V11.3616C15.5062 11.1595 15.1251 10.642 15.1251 10.0358V9.61914ZM16.1251 10.0358V9.61914H18.7911L18.7917 10.0358C18.7917 10.2657 18.6049 10.4525 18.3751 10.4525H16.5417L16.4669 10.4458C16.2727 10.4104 16.1251 10.2401 16.1251 10.0358ZM11.0411 1.46097L19.4071 6.78497H2.67508L11.0411 1.46097ZM4.20808 17.785V11.4525H5.04108V17.785H4.20808ZM10.6251 11.4525H11.4581V17.785H10.6251V11.4525ZM17.8741 11.4525H17.0411V17.785H17.8741V11.4525ZM1.87508 20.6191C1.64523 20.6191 1.45842 20.806 1.45842 21.0358L1.45808 21.452H20.6241L20.6251 21.0358C20.6251 20.8315 20.4775 20.6612 20.2832 20.6259L20.2084 20.6191H1.87508ZM18.3751 18.7858H16.5418C16.3119 18.7858 16.1251 18.9726 16.1251 19.2025V19.619H18.7911L18.7917 19.2025C18.7917 18.9982 18.6441 18.8279 18.4499 18.7925L18.3751 18.7858ZM11.9584 18.7858H10.1251C9.89523 18.7858 9.70842 18.9726 9.70842 19.2025L9.70808 19.619H12.3751V19.2025C12.3751 18.9982 12.2275 18.8279 12.0332 18.7925L11.9584 18.7858ZM5.54175 18.7858H3.70842C3.47856 18.7858 3.29175 18.9726 3.29175 19.2025L3.29108 19.619H5.95808L5.95842 19.2025C5.95842 18.9982 5.81082 18.8279 5.61658 18.7925L5.54175 18.7858Z" fill="#216bff"/>
</svg>
