<svg width="22" height="23" viewBox="0 0 22 23" fill="none" xmlns="http://www.w3.org/2000/svg">
<path fill-rule="evenodd" clip-rule="evenodd" d="M9.8335 4.33586H8.00016C7.72402 4.33586 7.50016 4.55971 7.50016 4.83586V6.66919C7.50016 6.94533 7.72402 7.16919 8.00016 7.16919H9.8335C10.1096 7.16919 10.3335 6.94533 10.3335 6.66919V4.83586C10.3335 4.55971 10.1096 4.33586 9.8335 4.33586ZM9.33316 5.33502V6.16902H8.50016V5.33502H9.33316Z" fill="#216bff"/>
<path fill-rule="evenodd" clip-rule="evenodd" d="M12.1718 4.33586H14.0052C14.2813 4.33586 14.5052 4.55971 14.5052 4.83586V6.66919C14.5052 6.94533 14.2813 7.16919 14.0052 7.16919H12.1718C11.8957 7.16919 11.6718 6.94533 11.6718 6.66919V4.83586C11.6718 4.55971 11.8957 4.33586 12.1718 4.33586ZM13.5052 6.16902V5.33502H12.6712V6.16902H13.5052Z" fill="#216bff"/>
<path fill-rule="evenodd" clip-rule="evenodd" d="M9.8335 8.50002H8.00016C7.72402 8.50002 7.50016 8.72388 7.50016 9.00002V10.8334C7.50016 11.1095 7.72402 11.3334 8.00016 11.3334H9.8335C10.1096 11.3334 10.3335 11.1095 10.3335 10.8334V9.00002C10.3335 8.72388 10.1096 8.50002 9.8335 8.50002ZM9.33316 9.49902V10.333H8.50016V9.49902H9.33316Z" fill="#216bff"/>
<path fill-rule="evenodd" clip-rule="evenodd" d="M12.1718 8.50002H14.0052C14.2813 8.50002 14.5052 8.72388 14.5052 9.00002V10.8334C14.5052 11.1095 14.2813 11.3334 14.0052 11.3334H12.1718C11.8957 11.3334 11.6718 11.1095 11.6718 10.8334V9.00002C11.6718 8.72388 11.8957 8.50002 12.1718 8.50002ZM13.5052 10.333V9.49902H12.6712V10.333H13.5052Z" fill="#216bff"/>
<path fill-rule="evenodd" clip-rule="evenodd" d="M9.8335 12.6692H8.00016C7.72402 12.6692 7.50016 12.893 7.50016 13.1692V15.0025C7.50016 15.2787 7.72402 15.5025 8.00016 15.5025H9.8335C10.1096 15.5025 10.3335 15.2787 10.3335 15.0025V13.1692C10.3335 12.893 10.1096 12.6692 9.8335 12.6692ZM9.33316 13.669V14.502H8.50016V13.669H9.33316Z" fill="#216bff"/>
<path fill-rule="evenodd" clip-rule="evenodd" d="M12.1718 12.6692H14.0052C14.2813 12.6692 14.5052 12.893 14.5052 13.1692V15.0025C14.5052 15.2787 14.2813 15.5025 14.0052 15.5025H12.1718C11.8957 15.5025 11.6718 15.2787 11.6718 15.0025V13.1692C11.6718 12.893 11.8957 12.6692 12.1718 12.6692ZM13.5052 14.502V13.669H12.6712V14.502H13.5052Z" fill="#216bff"/>
<path fill-rule="evenodd" clip-rule="evenodd" d="M11.1792 0.688427C11.0894 0.662777 10.9942 0.662777 10.9045 0.688427L4.4878 2.52176C4.27315 2.58309 4.12516 2.77928 4.12516 3.00252V4.33586H0.958496C0.682354 4.33586 0.458496 4.55971 0.458496 4.83586V22.2525C0.458496 22.5287 0.682354 22.7525 0.958496 22.7525H4.62377L4.62516 22.7525H17.4585L17.4599 22.7525H21.1252C21.4013 22.7525 21.6252 22.5287 21.6252 22.2525V4.83586C21.6252 4.55971 21.4013 4.33586 21.1252 4.33586H17.9585V3.00252C17.9585 2.77928 17.8105 2.58309 17.5959 2.52176L11.1792 0.688427ZM17.9585 8.91919V7.16919H19.2918L19.3817 7.16113C19.615 7.1188 19.7918 6.91465 19.7918 6.66919C19.7918 6.39305 19.568 6.16919 19.2918 6.16919H17.9585V5.33502H20.6252V21.752H17.9585V20.9192H19.2918L19.3817 20.9111C19.615 20.8688 19.7918 20.6646 19.7918 20.4192C19.7918 20.143 19.568 19.9192 19.2918 19.9192H17.9585V18.1692H19.2918L19.3817 18.1611C19.615 18.1188 19.7918 17.9146 19.7918 17.6692C19.7918 17.393 19.568 17.1692 19.2918 17.1692H17.9585V15.4192H19.2918L19.3817 15.4111C19.615 15.3688 19.7918 15.1646 19.7918 14.9192C19.7918 14.643 19.568 14.4192 19.2918 14.4192H17.9585V12.6692H19.2918L19.3817 12.6611C19.615 12.6188 19.7918 12.4146 19.7918 12.1692C19.7918 11.893 19.568 11.6692 19.2918 11.6692H17.9585V9.91919H19.2918L19.3817 9.91113C19.615 9.8688 19.7918 9.66465 19.7918 9.41919C19.7918 9.14305 19.568 8.91919 19.2918 8.91919H17.9585ZM5.12516 3.37902L11.0412 1.68802L16.9582 3.38002V21.752H14.2918V19.5025C14.2918 19.2264 14.068 19.0025 13.7918 19.0025H8.29183C8.01569 19.0025 7.79183 19.2264 7.79183 19.5025V21.752H5.12516V3.37902ZM4.12516 20.9192V21.752H1.45816V5.33502H4.12516V6.16919H2.79183L2.70195 6.17725C2.4687 6.21958 2.29183 6.42373 2.29183 6.66919C2.29183 6.94533 2.51569 7.16919 2.79183 7.16919H4.12516V8.91919H2.79183L2.70195 8.92725C2.4687 8.96958 2.29183 9.17373 2.29183 9.41919C2.29183 9.69533 2.51569 9.91919 2.79183 9.91919H4.12516V11.6692H2.79183L2.70195 11.6772C2.4687 11.7196 2.29183 11.9237 2.29183 12.1692C2.29183 12.4453 2.51569 12.6692 2.79183 12.6692H4.12516V14.4192H2.79183L2.70195 14.4272C2.4687 14.4696 2.29183 14.6737 2.29183 14.9192C2.29183 15.1953 2.51569 15.4192 2.79183 15.4192H4.12516V17.1692H2.79183L2.70195 17.1772C2.4687 17.2196 2.29183 17.4237 2.29183 17.6692C2.29183 17.9453 2.51569 18.1692 2.79183 18.1692H4.12516V19.9192H2.79183L2.70195 19.9272C2.4687 19.9696 2.29183 20.1737 2.29183 20.4192C2.29183 20.6953 2.51569 20.9192 2.79183 20.9192H4.12516ZM13.2912 21.752V20.002H8.79116V21.752H13.2912Z" fill="#216bff"/>
</svg>
