<svg width="66" height="16" viewBox="0 0 66 16" fill="none" xmlns="http://www.w3.org/2000/svg">
<path d="M0.46 15.5V1.34H3.9V15.5H0.46ZM13.1872 15.5V10.06C13.1872 9.78 13.1605 9.51333 13.1072 9.26C13.0672 9.00667 12.9939 8.78667 12.8872 8.6C12.7805 8.4 12.6272 8.24667 12.4272 8.14C12.2405 8.02 12.0005 7.96 11.7072 7.96C11.4139 7.96 11.1539 8.02 10.9272 8.14C10.7139 8.24667 10.5339 8.4 10.3872 8.6C10.2405 8.8 10.1272 9.03333 10.0472 9.3C9.98052 9.55333 9.94719 9.82 9.94719 10.1V15.5H6.64719V5.54H9.82719V6.92H9.86719C9.98719 6.70667 10.1405 6.5 10.3272 6.3C10.5272 6.08667 10.7539 5.90667 11.0072 5.76C11.2739 5.61333 11.5605 5.49333 11.8672 5.4C12.1739 5.30667 12.5005 5.26 12.8472 5.26C13.5139 5.26 14.0805 5.38 14.5472 5.62C15.0139 5.86 15.3872 6.17333 15.6672 6.56C15.9605 6.93333 16.1672 7.36667 16.2872 7.86C16.4205 8.35333 16.4872 8.84667 16.4872 9.34V15.5H13.1872ZM24.8314 8.48C24.5647 8.22667 24.2514 8.01333 23.8914 7.84C23.5314 7.66667 23.1514 7.58 22.7514 7.58C22.4447 7.58 22.1581 7.64 21.8914 7.76C21.6381 7.88 21.5114 8.08667 21.5114 8.38C21.5114 8.66 21.6514 8.86 21.9314 8.98C22.2247 9.1 22.6914 9.23333 23.3314 9.38C23.7047 9.46 24.0781 9.57333 24.4514 9.72C24.8381 9.86667 25.1847 10.06 25.4914 10.3C25.7981 10.54 26.0447 10.8333 26.2314 11.18C26.4181 11.5267 26.5114 11.94 26.5114 12.42C26.5114 13.0467 26.3847 13.58 26.1314 14.02C25.8781 14.4467 25.5447 14.7933 25.1314 15.06C24.7314 15.3267 24.2781 15.52 23.7714 15.64C23.2647 15.76 22.7581 15.82 22.2514 15.82C21.4381 15.82 20.6381 15.6933 19.8514 15.44C19.0781 15.1733 18.4314 14.7867 17.9114 14.28L19.7514 12.34C20.0447 12.66 20.4047 12.9267 20.8314 13.14C21.2581 13.3533 21.7114 13.46 22.1914 13.46C22.4581 13.46 22.7181 13.4 22.9714 13.28C23.2381 13.1467 23.3714 12.92 23.3714 12.6C23.3714 12.2933 23.2114 12.0667 22.8914 11.92C22.5714 11.7733 22.0714 11.62 21.3914 11.46C21.0447 11.38 20.6981 11.2733 20.3514 11.14C20.0047 11.0067 19.6914 10.8267 19.4114 10.6C19.1447 10.3733 18.9247 10.0933 18.7514 9.76C18.5781 9.42667 18.4914 9.02667 18.4914 8.56C18.4914 7.96 18.6181 7.45333 18.8714 7.04C19.1247 6.61333 19.4514 6.26667 19.8514 6C20.2514 5.73333 20.6914 5.54 21.1714 5.42C21.6647 5.28667 22.1514 5.22 22.6314 5.22C23.3781 5.22 24.1047 5.34 24.8114 5.58C25.5314 5.80667 26.1381 6.15333 26.6314 6.62L24.8314 8.48ZM31.965 2.36C31.965 2.61333 31.9117 2.85333 31.805 3.08C31.7117 3.29333 31.5783 3.48 31.405 3.64C31.245 3.8 31.045 3.92667 30.805 4.02C30.5783 4.11333 30.3383 4.16 30.085 4.16C29.5517 4.16 29.105 3.98667 28.745 3.64C28.385 3.28 28.205 2.85333 28.205 2.36C28.205 2.12 28.2517 1.89333 28.345 1.68C28.4383 1.45333 28.5717 1.26 28.745 1.1C28.9183 0.939999 29.1183 0.813332 29.345 0.72C29.5717 0.613333 29.8183 0.559999 30.085 0.559999C30.3383 0.559999 30.5783 0.606666 30.805 0.7C31.045 0.793333 31.245 0.919999 31.405 1.08C31.5783 1.24 31.7117 1.43333 31.805 1.66C31.9117 1.87333 31.965 2.10667 31.965 2.36ZM28.445 15.5V5.54H31.725V15.5H28.445ZM41.863 15.5V14.2H41.823C41.503 14.7067 41.043 15.1 40.443 15.38C39.8563 15.6467 39.2296 15.78 38.563 15.78C37.8163 15.78 37.1496 15.6333 36.563 15.34C35.9763 15.0467 35.4763 14.66 35.063 14.18C34.663 13.6867 34.3563 13.12 34.143 12.48C33.9296 11.84 33.823 11.1733 33.823 10.48C33.823 9.78667 33.9296 9.12667 34.143 8.5C34.3696 7.86 34.683 7.3 35.083 6.82C35.4963 6.34 35.9896 5.96 36.563 5.68C37.1496 5.4 37.803 5.26 38.523 5.26C39.2563 5.26 39.8763 5.4 40.383 5.68C40.8896 5.96 41.283 6.26667 41.563 6.6H41.603V0.379999H44.883V15.5H41.863ZM41.743 10.5C41.743 10.18 41.683 9.86667 41.563 9.56C41.4563 9.25333 41.2963 8.98 41.083 8.74C40.883 8.5 40.6363 8.30667 40.343 8.16C40.0496 8.01333 39.7163 7.94 39.343 7.94C38.9563 7.94 38.6163 8.01333 38.323 8.16C38.0296 8.30667 37.783 8.5 37.583 8.74C37.383 8.96667 37.2296 9.23333 37.123 9.54C37.0296 9.84667 36.983 10.16 36.983 10.48C36.983 10.8 37.0296 11.12 37.123 11.44C37.2296 11.7467 37.383 12.02 37.583 12.26C37.783 12.5 38.0296 12.6933 38.323 12.84C38.6163 12.9867 38.9563 13.06 39.343 13.06C39.7163 13.06 40.0496 12.9867 40.343 12.84C40.6363 12.6933 40.883 12.5 41.083 12.26C41.2963 12.02 41.4563 11.7467 41.563 11.44C41.683 11.1333 41.743 10.82 41.743 10.5ZM54.347 9.38C54.347 8.86 54.1804 8.41333 53.847 8.04C53.527 7.66667 53.0404 7.48 52.387 7.48C52.067 7.48 51.7737 7.53333 51.507 7.64C51.2404 7.73333 51.007 7.86667 50.807 8.04C50.607 8.21333 50.447 8.42 50.327 8.66C50.207 8.88667 50.1404 9.12667 50.127 9.38H54.347ZM57.367 10.64C57.367 10.7733 57.367 10.9067 57.367 11.04C57.367 11.1733 57.3604 11.3 57.347 11.42H50.127C50.1537 11.7 50.2337 11.9533 50.367 12.18C50.5137 12.4067 50.6937 12.6067 50.907 12.78C51.1337 12.94 51.3804 13.0667 51.647 13.16C51.927 13.2533 52.2137 13.3 52.507 13.3C53.027 13.3 53.467 13.2067 53.827 13.02C54.187 12.82 54.4804 12.5667 54.707 12.26L56.987 13.7C56.5204 14.38 55.9004 14.9067 55.127 15.28C54.367 15.64 53.4804 15.82 52.467 15.82C51.7204 15.82 51.0137 15.7067 50.347 15.48C49.6804 15.24 49.0937 14.9 48.587 14.46C48.0937 14.0067 47.7004 13.4533 47.407 12.8C47.127 12.1467 46.987 11.4 46.987 10.56C46.987 9.74667 47.127 9.01333 47.407 8.36C47.687 7.69333 48.067 7.13333 48.547 6.68C49.027 6.21333 49.5937 5.85333 50.247 5.6C50.9004 5.34667 51.607 5.22 52.367 5.22C53.1004 5.22 53.7737 5.34667 54.387 5.6C55.0004 5.84 55.527 6.19333 55.967 6.66C56.407 7.12667 56.747 7.69333 56.987 8.36C57.2404 9.02667 57.367 9.78667 57.367 10.64ZM65.8611 8.22C65.7144 8.18 65.5678 8.15333 65.4211 8.14C65.2878 8.12667 65.1544 8.12 65.0211 8.12C64.5811 8.12 64.2078 8.2 63.9011 8.36C63.6078 8.52 63.3678 8.71333 63.1811 8.94C63.0078 9.16667 62.8811 9.41333 62.8011 9.68C62.7211 9.94667 62.6811 10.18 62.6811 10.38V15.5H59.4011V5.54H62.5611V6.98H62.6011C62.8544 6.47333 63.2144 6.06 63.6811 5.74C64.1478 5.42 64.6878 5.26 65.3011 5.26C65.4344 5.26 65.5611 5.26667 65.6811 5.28C65.8144 5.29333 65.9211 5.31333 66.0011 5.34L65.8611 8.22Z" fill="#1A2258"/>
</svg>
