<svg width="23" height="19" viewBox="0 0 23 19" fill="none" xmlns="http://www.w3.org/2000/svg">
<path d="M7.04215 4.12516C7.3183 4.12516 7.54215 4.34902 7.54215 4.62516C7.54215 4.71612 7.72541 4.95953 7.95882 5.2139C8.19223 4.95953 8.37549 4.71612 8.37549 4.62516C8.37549 4.34902 8.59935 4.12516 8.87549 4.12516C9.15163 4.12516 9.37549 4.34902 9.37549 4.62516C9.37549 4.95747 9.08961 5.44178 8.699 5.88316C8.77316 5.93075 8.83446 5.9585 8.87549 5.9585C9.15163 5.9585 9.37549 6.18235 9.37549 6.4585C9.37549 6.73464 9.15163 6.9585 8.87549 6.9585C8.61595 6.9585 8.28712 6.80151 7.95882 6.56265C7.63052 6.80151 7.30169 6.9585 7.04215 6.9585C6.76601 6.9585 6.54215 6.73464 6.54215 6.4585C6.54215 6.18235 6.76601 5.9585 7.04215 5.9585C7.08318 5.9585 7.14449 5.93075 7.21864 5.88316C6.82803 5.44178 6.54215 4.95747 6.54215 4.62516C6.54215 4.34902 6.76601 4.12516 7.04215 4.12516Z" fill="##216bff"/>
<path d="M13.4588 4.12516C13.735 4.12516 13.9588 4.34902 13.9588 4.62516C13.9588 4.71612 14.1421 4.95953 14.3755 5.2139C14.6089 4.95953 14.7922 4.71612 14.7922 4.62516C14.7922 4.34902 15.016 4.12516 15.2922 4.12516C15.5683 4.12516 15.7922 4.34902 15.7922 4.62516C15.7922 4.95747 15.5063 5.44178 15.1157 5.88316C15.1898 5.93075 15.2511 5.9585 15.2922 5.9585C15.5683 5.9585 15.7922 6.18235 15.7922 6.4585C15.7922 6.73464 15.5683 6.9585 15.2922 6.9585C15.0326 6.9585 14.7038 6.80151 14.3755 6.56265C14.0472 6.80151 13.7184 6.9585 13.4588 6.9585C13.1827 6.9585 12.9588 6.73464 12.9588 6.4585C12.9588 6.18235 13.1827 5.9585 13.4588 5.9585C13.4998 5.9585 13.5612 5.93075 13.6353 5.88315C13.2447 5.44178 12.9588 4.95747 12.9588 4.62516C12.9588 4.34902 13.1827 4.12516 13.4588 4.12516Z" fill="#216bff"/>
<path fill-rule="evenodd" clip-rule="evenodd" d="M19.4537 4.41721C19.3454 2.21275 17.5235 0.458496 15.2922 0.458496H7.04215L6.83421 0.463596C4.62974 0.571963 2.87549 2.39383 2.87549 4.62516V5.99311C2.73847 5.9703 2.59947 5.9585 2.45882 5.9585C1.16976 5.9585 0.125488 7.00277 0.125488 8.29183C0.125488 9.58089 1.16976 10.6252 2.45882 10.6252C2.40143 10.6252 2.4332 10.6664 2.49066 10.741C2.51796 10.7765 2.55106 10.8194 2.58315 10.8691C2.70026 11.0503 2.78823 11.2701 2.83572 11.5212C1.80708 11.7646 1.04215 12.6886 1.04215 13.7918C1.04215 14.9093 1.82686 15.8427 2.87549 16.0715V17.4585L2.88198 17.5949C2.95065 18.3131 3.55602 18.8752 4.29215 18.8752H5.20882L5.34522 18.8687C6.06342 18.8 6.62549 18.1946 6.62549 17.4585V16.1252H15.7088V17.4585L15.7153 17.5949C15.784 18.3131 16.3894 18.8752 17.1255 18.8752H18.0422L18.1785 18.8687C18.8968 18.8 19.4588 18.1946 19.4588 17.4585V16.0715C20.5075 15.8427 21.2922 14.9093 21.2922 13.7918C21.2922 12.6886 20.5272 11.7646 19.4986 11.5212C19.5461 11.2701 19.634 11.0503 19.7512 10.8691C19.7833 10.8194 19.8164 10.7765 19.8437 10.741C19.9011 10.6664 19.9329 10.6252 19.8755 10.6252C21.1645 10.6252 22.2088 9.58089 22.2088 8.29183C22.2088 7.00277 21.1645 5.9585 19.8755 5.9585C19.7348 5.9585 19.5958 5.9703 19.4588 5.99311V4.62516L19.4537 4.41721ZM18.9588 15.1252C19.6956 15.1252 20.2922 14.5286 20.2922 13.7918C20.2922 13.0551 19.6956 12.4585 18.9588 12.4585H3.37549C2.63871 12.4585 2.04216 13.0551 2.04216 13.7918C2.04216 14.5286 2.63871 15.1252 3.37549 15.1252H18.9588ZM16.7088 16.1252H18.4588V17.4585L18.4521 17.5333C18.4168 17.7276 18.2465 17.8752 18.0422 17.8752H17.1255L17.0507 17.8684C16.8564 17.8331 16.7088 17.6628 16.7088 17.4585V16.1252ZM3.87549 17.4585V16.1252H5.62549V17.4585L5.61877 17.5333C5.58344 17.7276 5.41314 17.8752 5.20882 17.8752H4.29215L4.21733 17.8684C4.02309 17.8331 3.87549 17.6628 3.87549 17.4585ZM18.4588 6.36653V4.62516C18.4588 2.93669 17.137 1.55668 15.4718 1.46351L15.2922 1.4585H7.04215C5.35368 1.4585 3.97367 2.78029 3.8805 4.44548L3.87549 4.62516V6.36653C5.36105 7.24114 6.45189 9.38577 6.60661 11.4585H15.7277C15.8824 9.38577 16.9733 7.24114 18.4588 6.36653ZM2.60505 6.96572C4.01635 7.10452 5.35032 9.22144 5.58804 11.3126L5.60177 11.4582H3.83477L3.83357 11.4454C3.67025 10.4437 3.05597 9.62516 2.45882 9.62516C1.72205 9.62516 1.12549 9.0286 1.12549 8.29183C1.12549 7.55506 1.72205 6.9585 2.45882 6.9585L2.60505 6.96572ZM19.8755 6.9585C20.6123 6.9585 21.2088 7.55506 21.2088 8.29183C21.2088 9.0286 20.6123 9.62516 19.8755 9.62516L19.7759 9.63263C19.2468 9.71143 18.7246 10.4043 18.5343 11.27L18.4978 11.4582H16.7318L16.7463 11.3126C16.9922 9.14933 18.4113 6.9585 19.8755 6.9585Z" fill="#216bff"/>
</svg>
