<svg width="38" height="38" viewBox="0 0 38 38" fill="none" xmlns="http://www.w3.org/2000/svg">
<path d="M37.333 37.3337H33.2421M0.666344 37.3337H3.9999H17.3332M33.2421 37.3337H17.3332M33.2421 37.3337V4.00033V1.16699C33.2421 0.89085 33.0182 0.666992 32.7421 0.666992H17.8332C17.5571 0.666992 17.3332 0.89085 17.3332 1.16699V4.00033V7.33366V37.3337M29.8328 5.667H20.6661M29.8328 10.667H20.6661M29.8328 15.667H20.6661M29.8328 20.667H20.6661M29.8328 25.667H20.6661M29.8328 31.5003H20.6661M4.75748 37.3337V7.33366V4.50033C4.75748 4.22419 4.98133 4.00033 5.25748 4.00033H17.257M14.833 10.667H7.33299M14.833 15.667H7.33299M14.833 20.667H7.33299M14.833 25.667H7.33299M14.833 31.5003H7.33299" stroke="#1A2258" stroke-linecap="round"/>
</svg>
