<svg width="22" height="23" viewBox="0 0 22 23" fill="none" xmlns="http://www.w3.org/2000/svg">
<path fill-rule="evenodd" clip-rule="evenodd" d="M5.73706 3.79586C5.52898 3.46231 5.00636 3.49011 4.8507 3.87925L3.1007 8.25425L3.0748 8.34069C3.02748 8.57298 3.15134 8.81302 3.37925 8.90418L3.46569 8.93008C3.69797 8.9774 3.93802 8.85354 4.02918 8.62564L4.25332 8.06494H6.37639L6.6007 8.62564L6.64156 8.70609C6.7675 8.90694 7.02273 8.99534 7.25064 8.90418C7.50703 8.80162 7.63174 8.51064 7.52918 8.25425L5.77918 3.87925L5.73706 3.79586ZM5.31444 5.41044L4.65306 7.06494H5.97634L5.31444 5.41044Z" fill="#216bff"/>
<path d="M12.8149 4.06494C12.8149 3.7888 12.5911 3.56494 12.3149 3.56494H8.81494L8.72507 3.573C8.49182 3.61533 8.31494 3.81948 8.31494 4.06494C8.31494 4.34108 8.5388 4.56494 8.81494 4.56494H10.0649V8.43994L10.073 8.52982C10.1153 8.76307 10.3195 8.93994 10.5649 8.93994C10.8411 8.93994 11.0649 8.71608 11.0649 8.43994V4.56494H12.3149L12.4048 4.55689C12.6381 4.51455 12.8149 4.3104 12.8149 4.06494Z" fill="#216bff"/>
<path d="M18.9327 3.97578C18.8612 3.54832 18.2812 3.4017 18.0239 3.78759L16.6894 5.78844L15.356 3.78759L15.3005 3.71744C15.0039 3.40143 14.4399 3.60116 14.4399 4.06494V8.43994L14.448 8.52982C14.4903 8.76307 14.6945 8.93994 14.9399 8.93994L15.0298 8.93189C15.2631 8.88955 15.4399 8.6854 15.4399 8.43994L15.4394 5.71544L16.2739 6.96729L16.3334 7.04089C16.5492 7.2617 16.926 7.23717 17.106 6.96729L17.9394 5.71544L17.9399 8.43994L17.948 8.52982C17.9903 8.76307 18.1945 8.93994 18.4399 8.93994C18.7161 8.93994 18.9399 8.71608 18.9399 8.43994V4.06494L18.9327 3.97578Z" fill="#216bff"/>
<path fill-rule="evenodd" clip-rule="evenodd" d="M8.48038 15.0684C7.93234 15.5618 7.48365 15.8149 7.06494 15.8149C6.64623 15.8149 6.19754 15.5618 5.6495 15.0684C5.32776 14.7787 4.81494 15.007 4.81494 15.4399V18.0649C4.81494 18.3411 5.0388 18.5649 5.31494 18.5649H8.81494C9.09108 18.5649 9.31494 18.3411 9.31494 18.0649V15.4399C9.31494 15.007 8.80212 14.7787 8.48038 15.0684ZM8.31444 16.4434V17.5644H5.81444V16.4434L5.84669 16.4635C6.24314 16.6932 6.63722 16.8149 7.06494 16.8149C7.49267 16.8149 7.88674 16.6932 8.28319 16.4635L8.31444 16.4434Z" fill="#216bff"/>
<path fill-rule="evenodd" clip-rule="evenodd" d="M11.4399 13.1899H2.68994L2.60007 13.198C2.36682 13.2403 2.18994 13.4445 2.18994 13.6899C2.18994 13.9661 2.4138 14.1899 2.68994 14.1899H3.06494V19.8149C3.06494 20.0911 3.2888 20.3149 3.56494 20.3149H10.5649C10.8411 20.3149 11.0649 20.0911 11.0649 19.8149V14.1899H11.4399L11.5298 14.1819C11.7631 14.1396 11.9399 13.9354 11.9399 13.6899C11.9399 13.4138 11.7161 13.1899 11.4399 13.1899ZM4.06444 19.3144V14.1899H10.0644V19.3144H4.06444Z" fill="#216bff"/>
<path d="M14.5649 16.3149C14.5649 16.0388 14.3411 15.8149 14.0649 15.8149H13.1899L13.1001 15.823C12.8668 15.8653 12.6899 16.0695 12.6899 16.3149C12.6899 16.5911 12.9138 16.8149 13.1899 16.8149H14.0649L14.1548 16.8069C14.3881 16.7646 14.5649 16.5604 14.5649 16.3149Z" fill="#216bff"/>
<path d="M16.6899 15.8149C16.9661 15.8149 17.1899 16.0388 17.1899 16.3149C17.1899 16.5604 17.0131 16.7646 16.7798 16.8069L16.6899 16.8149H15.8149C15.5388 16.8149 15.3149 16.5911 15.3149 16.3149C15.3149 16.0695 15.4918 15.8653 15.7251 15.823L15.8149 15.8149H16.6899Z" fill="#216bff"/>
<path d="M14.5649 18.0649C14.5649 17.7888 14.3411 17.5649 14.0649 17.5649H13.1899L13.1001 17.573C12.8668 17.6153 12.6899 17.8195 12.6899 18.0649C12.6899 18.3411 12.9138 18.5649 13.1899 18.5649H14.0649L14.1548 18.5569C14.3881 18.5145 14.5649 18.3104 14.5649 18.0649Z" fill="#216bff"/>
<path d="M16.6899 17.5649C16.9661 17.5649 17.1899 17.7888 17.1899 18.0649C17.1899 18.3104 17.0131 18.5145 16.7798 18.5569L16.6899 18.5649H15.8149C15.5388 18.5649 15.3149 18.3411 15.3149 18.0649C15.3149 17.8195 15.4918 17.6153 15.7251 17.573L15.8149 17.5649H16.6899Z" fill="#216bff"/>
<path d="M14.5649 19.8149C14.5649 19.5388 14.3411 19.3149 14.0649 19.3149H13.1899L13.1001 19.323C12.8668 19.3653 12.6899 19.5695 12.6899 19.8149C12.6899 20.0911 12.9138 20.3149 13.1899 20.3149H14.0649L14.1548 20.3069C14.3881 20.2645 14.5649 20.0604 14.5649 19.8149Z" fill="#216bff"/>
<path d="M16.6899 19.3149C16.9661 19.3149 17.1899 19.5388 17.1899 19.8149C17.1899 20.0604 17.0131 20.2645 16.7798 20.3069L16.6899 20.3149H15.8149C15.5388 20.3149 15.3149 20.0911 15.3149 19.8149C15.3149 19.5695 15.4918 19.3653 15.7251 19.323L15.8149 19.3149H16.6899Z" fill="#216bff"/>
<path d="M19.8149 16.3149C19.8149 16.0388 19.5911 15.8149 19.3149 15.8149H18.4399L18.3501 15.823C18.1168 15.8653 17.9399 16.0695 17.9399 16.3149C17.9399 16.5911 18.1638 16.8149 18.4399 16.8149H19.3149L19.4048 16.8069C19.6381 16.7646 19.8149 16.5604 19.8149 16.3149Z" fill="#216bff"/>
<path d="M19.3149 17.5649C19.5911 17.5649 19.8149 17.7888 19.8149 18.0649C19.8149 18.3104 19.6381 18.5145 19.4048 18.5569L19.3149 18.5649H18.4399C18.1638 18.5649 17.9399 18.3411 17.9399 18.0649C17.9399 17.8195 18.1168 17.6153 18.3501 17.573L18.4399 17.5649H19.3149Z" fill="#216bff"/>
<path d="M19.8149 19.8149C19.8149 19.5388 19.5911 19.3149 19.3149 19.3149H18.4399L18.3501 19.323C18.1168 19.3653 17.9399 19.5695 17.9399 19.8149C17.9399 20.0911 18.1638 20.3149 18.4399 20.3149H19.3149L19.4048 20.3069C19.6381 20.2645 19.8149 20.0604 19.8149 19.8149Z" fill="#216bff"/>
<path d="M19.3149 13.1899C19.5911 13.1899 19.8149 13.4138 19.8149 13.6899C19.8149 13.9354 19.6381 14.1396 19.4048 14.1819L19.3149 14.1899H17.5336C17.3335 14.702 16.8352 15.0649 16.2524 15.0649C15.6697 15.0649 15.1713 14.702 14.9712 14.1899H13.1899C12.9138 14.1899 12.6899 13.9661 12.6899 13.6899C12.6899 13.4445 12.8668 13.2403 13.1001 13.198L13.1899 13.1899H14.9712C15.1713 12.6779 15.6697 12.3149 16.2524 12.3149C16.8352 12.3149 17.3335 12.6779 17.5336 13.1899H19.3149Z" fill="#216bff"/>
<path fill-rule="evenodd" clip-rule="evenodd" d="M2.68994 0.939941H19.3149C20.558 0.939941 21.5649 1.94692 21.5649 3.18994V19.8149C21.5649 21.058 20.558 22.0649 19.3149 22.0649H2.68994C1.44692 22.0649 0.439941 21.058 0.439941 19.8149V3.18994C0.439941 1.94692 1.44692 0.939941 2.68994 0.939941ZM20.5649 3.18994V10.5649H1.43994V3.18994C1.43994 2.49921 1.99921 1.93994 2.68994 1.93994H19.3149C20.0057 1.93994 20.5649 2.49921 20.5649 3.18994ZM20.5649 11.5649H1.43994V19.8149C1.43994 20.5057 1.99921 21.0649 2.68994 21.0649H19.3149C20.0057 21.0649 20.5649 20.5057 20.5649 19.8149V11.5649Z" fill="#216bff"/>
</svg>
