<svg width="20" height="23" viewBox="0 0 20 23" fill="none" xmlns="http://www.w3.org/2000/svg">
<path fill-rule="evenodd" clip-rule="evenodd" d="M5.21441 13.0955C4.35998 13.0955 3.66679 13.7886 3.66679 14.6431C3.66679 15.4975 4.35998 16.1907 5.21441 16.1907C6.06884 16.1907 6.76203 15.4975 6.76203 14.6431C6.76203 13.7886 6.06884 13.0955 5.21441 13.0955ZM5.21441 14.0955C5.51655 14.0955 5.76203 14.3409 5.76203 14.6431C5.76203 14.9452 5.51655 15.1907 5.21441 15.1907C4.91227 15.1907 4.66679 14.9452 4.66679 14.6431C4.66679 14.3409 4.91227 14.0955 5.21441 14.0955Z" fill="#216bff"/>
<path fill-rule="evenodd" clip-rule="evenodd" d="M13.0954 14.6431C13.0954 13.7886 13.7886 13.0955 14.643 13.0955C15.4974 13.0955 16.1906 13.7886 16.1906 14.6431C16.1906 15.4975 15.4974 16.1907 14.643 16.1907C13.7886 16.1907 13.0954 15.4975 13.0954 14.6431ZM15.1906 14.6431C15.1906 14.3409 14.9451 14.0955 14.643 14.0955C14.3408 14.0955 14.0954 14.3409 14.0954 14.6431C14.0954 14.9452 14.3408 15.1907 14.643 15.1907C14.9451 15.1907 15.1906 14.9452 15.1906 14.6431Z" fill="#216bff"/>
<path d="M12.0001 14.6431C12.0001 14.3669 11.7763 14.1431 11.5001 14.1431H8.35727L8.26739 14.1511C8.03414 14.1935 7.85727 14.3976 7.85727 14.6431C7.85727 14.9192 8.08113 15.1431 8.35727 15.1431H11.5001L11.59 15.135C11.8232 15.0927 12.0001 14.8885 12.0001 14.6431Z" fill="#216bff"/>
<path fill-rule="evenodd" clip-rule="evenodd" d="M5.07979 0.523926H14.7776C16.1442 0.523926 17.2767 1.58307 17.3675 2.94655L18.2864 16.7382C18.2864 17.3376 17.5514 17.8966 16.3761 18.3412L19.2131 21.651C19.3928 21.8607 19.3685 22.1763 19.1589 22.356C18.9725 22.5158 18.7024 22.5143 18.5184 22.3648L18.4538 22.3018L17.7055 21.4288H2.15186L1.40356 22.3018C1.22385 22.5115 0.908202 22.5358 0.698539 22.356C0.512172 22.1963 0.47228 21.9291 0.591933 21.7245L0.644307 21.651L3.4856 18.3362C2.30866 17.8867 1.57271 17.3191 1.57318 16.705L2.48985 2.9466C2.58067 1.58307 3.71323 0.523926 5.07979 0.523926ZM3.97903 19.2971L3.009 20.4288H16.8484L15.8784 19.2971C15.8472 19.3097 15.8144 19.3193 15.7805 19.3255L15.6906 19.3336H4.16679C4.10038 19.3336 4.037 19.3206 3.97903 19.2971ZM8.15582 1.52393H5.07979C4.23962 1.52393 3.54346 2.17495 3.48764 3.01307L2.57208 16.7382C2.57208 17.2657 6.22798 18.3335 9.92922 18.3335C13.6297 18.3335 17.2864 17.2656 17.2875 16.7715L16.3698 3.01306C16.3139 2.17495 15.6178 1.52393 14.7776 1.52393H11.7016C11.891 1.8366 12.0001 2.20335 12.0001 2.59546C12.0001 2.98752 11.8911 3.35423 11.7016 3.66689H13.7932C14.6103 3.66689 15.2866 4.3027 15.3377 5.1187L15.6666 10.4526C15.6666 11.4467 13.508 11.9388 10.5174 11.9948L9.92849 12.0002C6.63708 12.0002 4.19039 11.5108 4.19134 10.4217L4.51927 5.11831C4.57035 4.3027 5.24669 3.66689 6.06382 3.66689H8.15575C7.96633 3.35423 7.85727 2.98752 7.85727 2.59546C7.85727 2.20335 7.96635 1.8366 8.15582 1.52393ZM6.06382 4.66689C5.77488 4.66689 5.5354 4.89201 5.51734 5.18041L5.19557 10.3863C5.20382 10.3596 5.22437 10.3653 5.27341 10.3882L5.31578 10.4082C5.53634 10.5125 5.8819 10.6148 6.32283 10.703C7.26405 10.8913 8.55162 11.0002 9.92849 11.0002C11.3058 11.0002 12.5934 10.8913 13.5345 10.703C13.9754 10.6148 14.3208 10.5125 14.5413 10.4082L14.6153 10.3752C14.6422 10.3664 14.6554 10.3708 14.6618 10.3976L14.3397 5.1808C14.3236 4.9241 14.1326 4.7177 13.8874 4.675L13.7932 4.66689H6.06382ZM9.9287 3.66689C10.52 3.66689 11.0001 3.18675 11.0001 2.59546C11.0001 2.00417 10.52 1.52403 9.9287 1.52403C9.33741 1.52403 8.85727 2.00417 8.85727 2.59546C8.85727 3.18675 9.33741 3.66689 9.9287 3.66689Z" fill="#216bff"/>
</svg>
