<svg width="16" height="16" viewBox="0 0 16 16" fill="none" xmlns="http://www.w3.org/2000/svg">
<path fill-rule="evenodd" clip-rule="evenodd" d="M8.00195 11.6692C8.21289 11.6692 8.4082 11.5754 8.55664 11.4192L14.2441 5.59888C14.3848 5.45825 14.4629 5.27856 14.4629 5.07544C14.4629 4.65356 14.1426 4.33325 13.7207 4.33325C13.5254 4.33325 13.3301 4.41138 13.1895 4.552L8.00195 9.8645L2.80664 4.552C2.66602 4.41138 2.48633 4.33325 2.27539 4.33325C1.86133 4.33325 1.5332 4.65356 1.5332 5.07544C1.5332 5.27856 1.61133 5.45825 1.75195 5.59888L7.43945 11.4192C7.60352 11.5833 7.7832 11.6692 8.00195 11.6692Z" fill="#1A2258"/>
</svg>
