<svg width="25" height="25" viewBox="0 0 25 25" fill="none" xmlns="http://www.w3.org/2000/svg">
<path d="M3 19.5V5.5C3 4.395 3.895 3.5 5 3.5H22C23.105 3.5 24 4.395 24 5.5V19.5C24 20.605 23.105 21.5 22 21.5H3" stroke="#216bff" stroke-linecap="round" stroke-linejoin="round"/>
<path d="M3 6.5C1.895 6.5 1 7.395 1 8.5V19.5C1 20.605 1.895 21.5 3 21.5H5" stroke="#216bff" stroke-linecap="round" stroke-linejoin="round"/>
<path fill-rule="evenodd" clip-rule="evenodd" d="M4.99951 18.4995H12.9995V12.4995H4.99951V18.4995Z" stroke="#216bff" stroke-linecap="round" stroke-linejoin="round"/>
<path d="M15 12.5H22" stroke="#216bff" stroke-linecap="round" stroke-linejoin="round"/>
<path d="M15 15.5H22" stroke="#216bff" stroke-linecap="round" stroke-linejoin="round"/>
<path d="M15 18.5H22" stroke="#216bff" stroke-linecap="round" stroke-linejoin="round"/>
<path d="M22 9.5H5" stroke="#216bff" stroke-linecap="round" stroke-linejoin="round"/>
<path d="M22 6.5H5" stroke="#216bff" stroke-linecap="round" stroke-linejoin="round"/>
</svg>
