<svg width="19" height="23" viewBox="0 0 19 23" fill="none" xmlns="http://www.w3.org/2000/svg">
<path fill-rule="evenodd" clip-rule="evenodd" d="M11.6402 2.18286L10.062 0.604638L9.9928 0.546783C9.79793 0.411787 9.52851 0.431072 9.35494 0.604638L7.77616 2.18286L4.4321 0.510978C4.00233 0.296089 3.54639 0.752021 3.76128 1.1818L5.59462 4.84846C5.67931 5.01786 5.85244 5.12486 6.04183 5.12486H13.3752C13.5645 5.12486 13.7377 5.01786 13.8224 4.84846L15.6557 1.1818C15.8706 0.752021 15.4147 0.296089 14.9849 0.510978L11.6402 2.18286ZM9.70816 1.66486L11.1883 3.14508L11.2581 3.20323C11.4061 3.3053 11.6004 3.32124 11.7654 3.23874L14.0902 2.07486L13.0652 4.12486H6.35016L5.32616 2.07586L7.65156 3.23874C7.84405 3.33499 8.07654 3.29726 8.22872 3.14508L9.70816 1.66486Z" fill="#216bff"/>
<path d="M13.3752 5.95819C13.6513 5.95819 13.8752 6.18205 13.8752 6.45819C13.8752 6.70365 13.6983 6.9078 13.465 6.95014L13.3752 6.95819H6.04183C5.76569 6.95819 5.54183 6.73433 5.54183 6.45819C5.54183 6.21273 5.7187 6.00858 5.95195 5.96625L6.04183 5.95819H13.3752Z" fill="#216bff"/>
<path fill-rule="evenodd" clip-rule="evenodd" d="M10.2085 12.4169C11.1906 12.5867 11.9668 13.2502 12.0401 14.1194C12.0633 14.3946 11.859 14.6364 11.5838 14.6596C11.3392 14.6803 11.1209 14.5211 11.0592 14.2923L11.0436 14.2034C11.0161 13.8771 10.6858 13.5694 10.2085 13.4394V15.2149C10.4087 15.2608 10.597 15.3163 10.779 15.3876C11.5442 15.6874 12.0418 16.2077 12.0418 17.0003C12.0418 17.9257 11.2409 18.6512 10.2085 18.8313V19.2915C10.2085 19.5677 9.98464 19.7915 9.7085 19.7915C9.46304 19.7915 9.25889 19.6147 9.21655 19.3814L9.2085 19.2915V18.832C8.22613 18.6623 7.45015 17.9991 7.37692 17.1293C7.35376 16.8542 7.55805 16.6123 7.83322 16.5892C8.07781 16.5686 8.29608 16.7277 8.35783 16.9566L8.3734 17.0455C8.4009 17.3721 8.73106 17.6797 9.2085 17.8095V16.035C9.00913 15.9891 8.8215 15.9338 8.6402 15.8629C7.87372 15.563 7.37516 15.0429 7.37516 14.2503C7.37516 13.3236 8.17582 12.5976 9.2085 12.4175V11.9582C9.2085 11.682 9.43235 11.4582 9.7085 11.4582C9.95396 11.4582 10.1581 11.6351 10.2004 11.8683L10.2085 11.9582V12.4169ZM9.2085 13.4402C8.70972 13.5771 8.37516 13.9083 8.37516 14.2503C8.37516 14.5517 8.58012 14.7655 9.00456 14.9316C9.06973 14.9571 9.13763 14.9803 9.2085 15.0015V13.4402ZM10.2085 16.2482V17.8086C10.7071 17.6718 11.0418 17.341 11.0418 17.0003C11.0418 16.6982 10.8375 16.4846 10.4142 16.3187C10.3485 16.293 10.28 16.2696 10.2085 16.2482Z" fill="#216bff"/>
<path fill-rule="evenodd" clip-rule="evenodd" d="M6.04183 7.79152H13.3752C13.5121 7.79152 13.643 7.84765 13.7373 7.9468L14.1055 8.34663L14.4675 8.75389C15.0121 9.37589 15.5567 10.0378 16.066 10.7128C16.5165 11.3099 16.9183 11.8898 17.2589 12.4438C18.0282 13.695 18.4585 14.7608 18.4585 15.6249C18.4585 19.4763 14.5177 22.5415 9.7085 22.5415C4.89933 22.5415 0.958496 19.4763 0.958496 15.6249C0.958496 14.7608 1.38878 13.695 2.15807 12.4438C2.49869 11.8898 2.90049 11.3099 3.35104 10.7128C3.86029 10.0378 4.40491 9.37589 4.94949 8.75389C5.14013 8.53615 5.31727 8.33881 5.47648 8.16531L5.67966 7.9468C5.77404 7.84765 5.90494 7.79152 6.04183 7.79152ZM13.5344 9.20776L13.1572 8.79086H6.25916L6.10796 8.95682L5.70187 9.41262C5.17224 10.0175 4.64264 10.6612 4.14929 11.3151C3.71668 11.8884 3.33256 12.4429 3.00993 12.9676C2.33002 14.0734 1.9585 14.9937 1.9585 15.6249C1.9585 18.8613 5.40443 21.5415 9.7085 21.5415C14.0126 21.5415 17.4585 18.8613 17.4585 15.6249C17.4585 14.9937 17.087 14.0734 16.4071 12.9676C16.0844 12.4429 15.7003 11.8884 15.2677 11.3151C14.7744 10.6612 14.2448 10.0175 13.7151 9.41262C13.6533 9.34205 13.593 9.27372 13.5344 9.20776Z" fill="#216bff"/>
</svg>
